<svg viewBox="0 0 152 152" fill="none" xmlns="http://www.w3.org/2000/svg"><path fill="#EEE" d="M0 0h152v152h-152z"/><path d="M36.3 95.84a18.56 18.56 0 0 1-3.25-11.8v-17.07c-.3-4.21.82-8.4 3.2-11.92 2.16-2.72 5.84-4.06 11.05-4.05 5.2.02 8.73 1.2 10.57 3.57a15.06 15.06 0 0 1 3.1 10.22v4h-9.63v-4.35a22.28 22.28 0 0 0-.3-3.4 3.8 3.8 0 0 0-1.1-2.17 3.65 3.65 0 0 0-2.67-.84 3.46 3.46 0 0 0-3.48 1.7 12.2 12.2 0 0 0-.8 5.01v21.66c-.1 1.71.21 3.43.91 5a3.41 3.41 0 0 0 3.37 1.66 3.2 3.2 0 0 0 3.26-1.68c.56-1.6.8-3.3.72-4.98v-4.55h9.62v3.93c.28 3.71-.72 7.4-2.86 10.49-2.04 2.5-5.58 3.73-10.6 3.73s-8.95-1.36-11.1-4.16Zm37.17-43.84h11.13l9.4 47h-9.26l-1.66-10.38h-7.8l-1.88 10.31h-9.4l9.47-46.93Zm8.57 30.7-2.96-18.88-2.93 18.89h5.9Zm18.52-23.62h-7.56v-7.08h25v7.08h-7.46v39.92h-10l.02-39.92Z" fill="#111"/></svg>